<svg xmlns="http://www.w3.org/2000/svg" viewBox="0 0 128 128" role="img" aria-label="AlwaysTrack">
  
  <g fill="none" stroke="#0F3D4C" stroke-linecap="round" stroke-linejoin="round">
    <path d="M86 26C75 14 47 16 35 31C24 45 30 61 49 64L72 68C93 72 101 88 89 103C76 119 45 117 33 101" stroke-width="10"/>
    <path d="M40 32c6-7 15-11 26-11" stroke-width="6" opacity=".42"/>
    <path d="M37 31l-6-7M52 21l-2-9M69 20l3-9" stroke-width="4" opacity=".8"/>
    <path d="M46 29v18h18" stroke="#22A06B" stroke-width="5"/>
  </g>
  <circle cx="82" cy="84" r="25" fill="#22A06B"/>
  <circle cx="82" cy="84" r="21" fill="#22A06B" stroke="rgba(255,255,255,.72)" stroke-width="2"/>
  <path d="M70 84.5l8 8 17-19" fill="none" stroke="#fff" stroke-linecap="round" stroke-linejoin="round" stroke-width="7"/>
</svg>